<?xml version="1.0" encoding="utf-8"?>
<!-- Generator: Adobe Illustrator 26.2.1, SVG Export Plug-In . SVG Version: 6.00 Build 0)  -->
<svg version="1.1" id="Layer_1" xmlns="http://www.w3.org/2000/svg" xmlns:xlink="http://www.w3.org/1999/xlink" x="0px" y="0px"
	 width="277.494px" height="134.128px" viewBox="0 0 277.494 134.128" style="enable-background:new 0 0 277.494 134.128;"
	 xml:space="preserve">
<style type="text/css">
	.st0{fill:url(#SVGID_1_);}
	.st1{fill:#F1CF00;}
	.st2{fill:#00488D;}
	.st3{fill:#FFFFFF;}
	.st4{fill:#3A559C;}
</style>
<g>
	
		<linearGradient id="SVGID_1_" gradientUnits="userSpaceOnUse" x1="-525.4554" y1="613.0278" x2="-525.4554" y2="527.2797" gradientTransform="matrix(1.1979 0 0 -1.1979 766.5743 738.1302)">
		<stop  offset="0" style="stop-color:#5398C1"/>
		<stop  offset="1" style="stop-color:#D3E5F0"/>
	</linearGradient>
	<path class="st0" d="M10.072,57.479c0,0,2.341,3.94,2.352,3.934l4.13-2.065l0.574-0.287l18.932,42.169l1.82,4.053l4.241-1.403
		l10.252-3.392l4.49-1.485l-1.188-4.559l-5.443-20.894c1.569-1.172,3.028-2.422,4.375-3.728c-0.298,2.511-0.145,5.039,0.537,7.458
		c1.425,5.06,4.745,9.04,9.348,11.208c4.972,2.341,11.041,2.285,16.65-0.156c2.816-1.233,5.323-2.995,7.438-5.103l0.773,8.326
		l17.942-2.829l-0.024-16.135l37.5,18.197V72.79c1.515-0.138,3.049-0.393,4.591-0.782c4.136-1.042,7.657-2.456,10.796-4.369
		l-1.574,9.668l20.218,2.985l1.118-7.312l5.282,9.726l3.221-6.268l1.178,10.219l22.929,3.815l-1.217-7.72
		c3.134,0.321,6.445-0.128,9.64-1.367c0.765-0.299,1.507-0.643,2.228-1.018l-0.923,8.244l15.259,1.981l0.125,6.269l15.9,4.848
		l20.721-62.784l-21.574-5.02l-2.048,8.482l-1.893-9.361l-25.349-5.324l0.185,14.118l3.818,0.812l-0.286,2.557
		c-0.037-0.02-0.072-0.042-0.109-0.061c-4.725-2.464-10.593-2.652-16.126-0.506c-1.845,0.727-3.565,1.689-5.136,2.829l-3.809-24.146
		l-16.86,0.177l-0.472,2.779l-17.736,0.185l-2.03,12.467l-1.474-1.803c-4.299-5.257-10.528-8.11-17.431-8.183l15.058-8.265
		L150.488,5.058L131.506,27.17l3.283,3.979c-2.976,1.245-5.567,2.943-7.703,4.99l-16.271-14.296l-5.701,10.99l0.222-10.502
		l-25.447,8.405l0.649,13.701l4.33-1.177l0.645,6.944c-4.943-2.176-10.882-2.07-16.4,0.332c-1.631,0.72-3.159,1.616-4.567,2.653
		c0.956-4.241,0.729-8.411-0.878-12.111c-1.898-4.369-5.237-7.968-9.334-10.215c-2.872-1.886-6.296-3.047-9.885-3.413
		c-8.796-1.455-19.367,0.244-29.767,4.785c-3.825,1.67-7.396,3.573-10.613,5.658L0,40.526l2.455,4.133 M115.579,54.572l4.818-4.74
		c-0.206,2.165-0.098,4.411,0.356,6.698L115.579,54.572z M162.886,50.894l-3.309-2.951l3.536-3.811l1.061-1.143L162.886,50.894z"/>
	<path class="st1" d="M255.874,29.914l-2.052,8.46l-1.897-9.38l-25.404-5.588l0.186,14.12l3.826,0.852l-0.287,2.554
		c-0.037-0.02-0.072-0.043-0.109-0.062c-4.735-2.514-10.617-2.763-16.161-0.674c-1.849,0.708-3.573,1.652-5.147,2.775l-3.816-24.186
		h-16.897l-0.473,2.774h-17.775l-2.035,12.445l-1.477-1.818c-4.308-5.302-10.551-8.22-17.469-8.366l15.09-8.108L153.45,0
		l-19.023,21.914l3.291,4.013c-2.982,1.215-5.579,2.886-7.72,4.909L113.69,16.37l-5.714,10.93l0.223-10.5l-25.504,8.14l0.65,13.708
		l4.34-1.132l0.647,6.95c-4.954-2.228-10.906-2.183-16.436,0.16c-1.634,0.703-3.166,1.583-4.578,2.605
		c0.959-4.231,0.732-8.404-0.879-12.12c-1.903-4.389-5.248-8.023-9.354-10.312c-2.878-1.916-6.31-3.113-9.906-3.516
		c-8.815-1.546-19.409,0.043-29.832,4.475c-3.834,1.63-7.412,3.496-10.636,5.546l-4.077,2.593l2.461,4.159l7.633,12.899
		c0,0,2.346,3.964,2.357,3.959l4.139-2.023l0.575-0.281l18.973,42.367l1.823,4.072l4.25-1.358l10.275-3.285l4.5-1.439l-1.19-4.571
		l-5.454-20.952c1.572-1.156,3.035-2.39,4.385-3.682c-0.299,2.508-0.146,5.037,0.538,7.464c1.428,5.074,4.755,9.089,9.368,11.305
		c4.983,2.393,11.065,2.4,16.687,0.018c2.823-1.204,5.334-2.94,7.454-5.025l0.775,8.335l17.982-2.642l-0.023-16.135L147.72,85.67
		V67.674c1.518-0.122,3.056-0.361,4.601-0.733c4.144-0.999,7.675-2.377,10.82-4.256l-1.578,9.652l20.262,3.196l1.12-7.301
		l5.293,9.781l3.228-6.234l1.18,10.232l22.98,4.054l-1.22-7.733c3.142,0.354,6.46-0.06,9.661-1.266
		c0.767-0.291,1.51-0.627,2.233-0.995l-0.924,8.234l15.292,2.14l0.125,6.27l15.934,5.013l20.767-62.57L255.874,29.914z
		 M47.451,53.303c-0.741-2.455-2.339-7.752-2.339-7.752c0.008,0.029-0.323-1.141-0.695-2.455c1.463-0.257,2.861-0.121,4.011,0.437
		c0.64,0.311,1.75,1.035,1.993,2.391C50.965,48.972,49.911,51.137,47.451,53.303z M118.464,49.15l4.828-4.69
		c-0.207,2.163-0.098,4.411,0.356,6.701L118.464,49.15z M140.629,47.245c-1.275-2.332-1.005-5.309,0.889-7.379
		c1.83-1.999,4.635-2.563,7.02-1.641L140.629,47.245z M165.875,45.965l-3.317-2.985l3.544-3.774l1.063-1.132L165.875,45.965z"/>
	<g>
		<path class="st2" d="M255.874,29.914l-2.052,8.46l-1.897-9.38l-25.404-5.588l0.186,14.12l3.826,0.852l-0.287,2.554
			c-0.037-0.02-0.072-0.043-0.109-0.062c-4.735-2.514-10.617-2.763-16.161-0.674c-1.849,0.708-3.573,1.652-5.147,2.775
			l-3.816-24.186h-16.897l-0.473,2.774h-17.775l-2.035,12.445l-1.477-1.818c-4.308-5.302-10.551-8.22-17.469-8.366l15.09-8.108
			L153.45,0l-19.023,21.914l3.291,4.013c-2.982,1.215-5.579,2.886-7.72,4.909L113.69,16.37l-5.714,10.93l0.223-10.5l-25.504,8.14
			l0.65,13.708l4.34-1.132l0.647,6.95c-4.954-2.228-10.906-2.183-16.436,0.16c-1.634,0.703-3.166,1.583-4.578,2.605
			c0.959-4.231,0.732-8.404-0.879-12.12c-1.903-4.389-5.248-8.023-9.354-10.312c-2.878-1.916-6.31-3.113-9.906-3.516
			c-8.815-1.546-19.409,0.043-29.832,4.475c-3.834,1.63-7.412,3.496-10.636,5.546l-4.077,2.593l2.461,4.159l7.633,12.899
			c0,0,2.346,3.964,2.357,3.959l4.139-2.023l0.575-0.281l18.973,42.367l1.823,4.072l4.25-1.358l10.275-3.285l4.5-1.439l-1.19-4.571
			l-5.454-20.952c1.572-1.156,3.035-2.39,4.385-3.682c-0.299,2.508-0.146,5.037,0.538,7.464c1.428,5.074,4.755,9.089,9.368,11.305
			c4.983,2.393,11.065,2.4,16.687,0.018c2.823-1.204,5.334-2.94,7.454-5.025l0.775,8.335l17.982-2.642l-0.023-16.135L147.72,85.67
			V67.674c1.518-0.122,3.056-0.361,4.601-0.733c4.144-0.999,7.675-2.377,10.82-4.256l-1.578,9.652l20.262,3.196l1.12-7.301
			l5.293,9.781l3.228-6.234l1.18,10.232l22.98,4.054l-1.22-7.733c3.142,0.354,6.46-0.06,9.661-1.266
			c0.767-0.291,1.51-0.627,2.233-0.995l-0.924,8.234l15.292,2.14l0.125,6.27l15.934,5.013l20.767-62.57L255.874,29.914z
			 M166.102,39.207l1.063-1.132l-1.29,7.891l-3.317-2.985L166.102,39.207z M152.638,6.981l5.563,7.561l-15.911,7.885l-1.1-1.666
			L152.638,6.981z M123.648,51.162l-5.185-2.011l4.828-4.69C123.086,46.623,123.194,48.871,123.648,51.162z M47.258,65.292
			l6.342,24.36l-10.274,3.285L22.233,45.84c-1.142,0.601-3.259,1.612-5.213,2.573L9.388,35.515c3.045-1.937,6.368-3.659,9.911-5.165
			c9.947-4.229,19.42-5.485,27.017-4.152c2.678,0.307,5.526,1.106,8.004,2.755c3.419,1.92,6.029,4.655,7.541,8.144
			C65.532,45.565,59.397,57.799,47.258,65.292z M90.827,71.3c-2.134,2.959-5.085,5.426-8.574,6.914
			c-8.919,3.78-17.832,0-20.212-8.457c-2.31-8.198,3.06-17.93,11.701-21.646c5.511-2.336,11.043-1.782,15.013,0.913
			c2.456,1.667,4.316,4.152,5.2,7.285c0.097,0.341,0.175,0.684,0.247,1.029c0.247,1.194,0.345,2.409,0.305,3.625
			C94.388,64.583,93.055,68.211,90.827,71.3z M143.017,78.178l-37.293-18.653l0.066,19.541l-9.647,1.321l-0.679-8.07
			c2.985-5.1,4.074-11.119,2.512-16.627c-0.854-3.029-2.425-5.675-4.567-7.776l-1.384-16.436l-4.339,1.132l-0.188-4.151
			l15.498-4.613l0.943,15.978l11.417-16.039l11.157,10.621l-15.595,16.442l14.65,5.798c1.644,3.1,4.129,5.744,7.27,7.677
			c3.035,1.867,6.5,2.983,10.18,3.328V78.178z M151.179,62.229c-1.173,0.283-2.327,0.471-3.458,0.582
			c-8.557,0.834-15.729-3.103-18.462-9.472c-0.326-0.761-0.59-1.555-0.785-2.382c-1.265-5.372-0.192-10.164,2.461-13.921
			c0.767-1.087,1.67-2.084,2.685-2.985c2.5-2.226,5.691-3.86,9.304-4.731c8.16-1.967,15.341,0.527,19.728,5.926l-15.527,16.537
			c1.059,0.188,2.733-0.089,3.967-0.386c3.703-0.892,5.778-2.85,7.592-4.997l6.206,5.586l1.885,1.696
			c-0.826,0.852-1.672,1.636-2.548,2.36C160.655,58.995,156.576,60.928,151.179,62.229z M209.866,80.037l-12.696-1.939
			l-3.373-22.375l-4.775,12.345l-7.154-15.425h-0.077l-2.833,17.869l-11.914-2.072l1.67-9.972c0.449-0.42,0.895-0.85,1.332-1.301
			l3.854-3.977l-3.739-3.365l3.976-23.738h12.037l3.001,16.429l3.382-19.047h8.599l3.573,23.208
			c-4.549,5.179-6.748,12.131-5.23,18.504c1.173,4.927,4.21,8.91,8.551,11.216c0.44,0.234,0.893,0.441,1.352,0.635L209.866,80.037z
			 M222.577,73.126c-3.083,1.161-6.126,1.401-8.855,0.864c-1.891-0.372-3.63-1.117-5.124-2.194c-2.391-1.72-4.161-4.279-4.927-7.499
			c-0.918-3.851-0.078-7.977,1.992-11.566c1.029-1.785,2.363-3.436,3.939-4.855c1.747-1.573,3.788-2.863,6.041-3.724
			c5.258-1.981,10.426-1.289,14.092,1.335c1.329,0.951,2.459,2.156,3.324,3.58c0.667,1.098,1.181,2.324,1.501,3.667
			c1.11,4.623-0.219,9.588-3.138,13.588c-1.243,1.704-2.774,3.234-4.531,4.487C225.57,71.752,224.124,72.539,222.577,73.126z
			 M253.736,91.911l-8.816-2.636l-0.769-32.497l-4.436,25.071l-9.621-1.53l0.685-7.228c6.281-5.306,9.617-13.673,7.795-21.26
			c-0.803-3.365-2.526-6.284-4.971-8.518l0.808-8.512l-3.632-0.97l0.248-4.546l16.572,3.331l5.572,26.427l5.709-23.69l12.607,2.79
			L253.736,91.911z"/>
		<path class="st2" d="M227.099,49.961c0.1,0.38,0.151,0.775,0.134,1.183c-0.1,2.462-2.424,4.367-5.19,4.255
			c-2.766-0.112-4.928-2.2-4.828-4.662c0.094-2.313,2.15-4.133,4.692-4.253c-0.488-0.105-0.991-0.175-1.51-0.196
			c-4.622-0.187-8.404,3.09-8.57,7.174c-0.176,4.347,3.327,7.92,7.88,8.105c4.622,0.187,8.405-3.09,8.581-7.437
			C228.348,52.623,227.906,51.185,227.099,49.961z"/>
		<path class="st2" d="M86.743,54.938c0,2.464-2.245,4.462-5.013,4.462s-5.013-1.998-5.013-4.462c0-2.315,1.981-4.217,4.515-4.44
			c-0.492-0.085-0.997-0.135-1.516-0.135c-4.627,0-8.272,3.428-8.272,7.515c0,4.351,3.645,7.779,8.202,7.779
			c4.627,0,8.272-3.428,8.272-7.779c0-1.509-0.5-2.927-1.356-4.117C86.677,54.138,86.743,54.531,86.743,54.938z"/>
	</g>
	<path class="st2" d="M140.84,46.611c-1.149-2.087-0.915-4.757,0.778-6.617c1.635-1.797,4.149-2.309,6.288-1.489L140.84,46.611z
		 M141.618,39.994c-1.693,1.86-1.927,4.53-0.778,6.617l7.066-8.106C145.767,37.686,143.253,38.198,141.618,39.994z M151.826,37.289
		c-3.624-3.298-9.235-3.034-12.533,0.59c-3.297,3.623-3.034,9.235,0.59,12.533c0.301,0.274,0.62,0.514,0.947,0.739l11.625-13.23
		C152.257,37.703,152.049,37.491,151.826,37.289z M140.84,46.611c-1.149-2.087-0.915-4.757,0.778-6.617
		c1.635-1.797,4.149-2.309,6.288-1.489L140.84,46.611z"/>
	<path class="st2" d="M53.791,45.173c-0.903-4.993-7.401-7.788-13.898-4.304l1.632,5.718l2.57,8.452l1.173,3.855
		C50.136,55.8,55.042,52.086,53.791,45.173z M47.326,52.796c-0.703-2.312-2.219-7.299-2.219-7.299
		c0.008,0.027-0.306-1.074-0.66-2.311c1.377-0.244,2.695-0.12,3.78,0.404c0.603,0.292,1.651,0.971,1.882,2.249
		C50.628,48.709,49.639,50.75,47.326,52.796z"/>
</g>
<g>
	<path d="M260.837,93.296h2.178v0.32h-0.904v2.365h-0.369v-2.365h-0.904V93.296z"/>
	<path d="M263.339,95.98v-2.685h0.521l0.771,2.27l0.765-2.27h0.515v2.685h-0.345v-1.584c0-0.055,0.001-0.145,0.004-0.272
		c0.003-0.127,0.004-0.262,0.004-0.408l-0.766,2.264h-0.36l-0.771-2.264v0.082c0,0.066,0.002,0.166,0.005,0.3
		c0.003,0.135,0.005,0.234,0.005,0.297v1.584H263.339z"/>
</g>
<g>
	<path d="M260.837,108.945h2.178v0.32h-0.904v2.364h-0.369v-2.364h-0.904V108.945z"/>
	<path d="M263.339,111.629v-2.684h0.521l0.771,2.27l0.765-2.27h0.515v2.684h-0.345v-1.584c0-0.055,0.001-0.146,0.004-0.272
		c0.003-0.127,0.004-0.262,0.004-0.408l-0.766,2.264h-0.36l-0.771-2.264v0.082c0,0.066,0.002,0.166,0.005,0.301
		c0.003,0.134,0.005,0.234,0.005,0.297v1.584L263.339,111.629L263.339,111.629z"/>
</g>
<path class="st3" d="M63.24,116.377c-0.313,1.628-0.589,3.37-0.713,4.736c-0.099,1.362,0.211,2.531,0.171,3.184
	c-0.086,0.656-0.839,1.18-1.34,1.3c-0.501,0.1-1.107,0.135-1.376-0.675c-0.133-0.394-0.164-1.226-0.079-2.273
	c0.107-1.218,0.249-2.117,0.379-2.829c-4.776,4.807-9.305,7.81-13.181,8.873c-3.488,0.778-4.85-1.156-4.635-4.456
	c0.671-5.762,5.695-14.352,9.429-19.248c0.847-1.074,2.221-2.187,2.907-2.464c0.51-0.188,1.046-0.148,1.254,0.499
	c0.14,0.355,0.19,0.927,0.254,1.419c0.022,0.583,0.078,1.04,0.065,1.234c-0.033,0.32-0.209,0.936-0.603,1.066
	c-0.176,0.047-0.376,0.1-0.622,0.093c-0.209-0.02-0.473-0.052-0.612-0.019c-0.176,0.049-0.642,0.209-1.24,0.927
	c-2.527,3.206-6.457,9.321-7.156,15.82c-0.149,2.202,0.703,2.799,2.176,2.483c2.256-0.642,7.344-4.179,10.761-8.1
	c0.228-0.224,0.37-0.412,0.569-0.665c-0.465,0.107-0.857,0.436-2.103,1.056c-1.248,0.66-1.783,1.176-2.678,1.388
	c-0.896,0.159-1.36-0.59-1.331-1.195c0.073-0.609,0.673-1.654,1.387-1.85c0.717-0.169,1.681-0.571,3.074-1.23
	c1.942-0.926,4.508-2.177,5.047-2.348c0.25-0.037,0.644,0.246,0.613,0.804C63.59,114.655,63.559,114.711,63.24,116.377z"/>
<path class="st3" d="M69.682,108.993c0.444-0.427,0.374-1.054,1.303-1.272c0.895-0.171,1.053,0.16,1.876,0.01
	c1.716-0.255,5.252,1.368,4.937,6.899c-0.641,5.504-4.884,8.488-7.881,9.152c-3.037,0.502-5.261-0.356-4.965-4.99
	C65.289,115.64,67.268,111.516,69.682,108.993z M73.927,116.008c0.201-2.897-0.692-5.473-1.687-5.397
	c-1.027,0.321-2.955,3.821-3.316,7.235c-0.208,2.837,0.539,3.66,1.645,3.504C71.85,121.041,73.608,118.945,73.927,116.008z"/>
<path class="st3" d="M79.384,110.604c-0.641,0.085-1.001-0.452-0.978-0.929c0.079-0.76,0.423-1.594,1.244-1.771
	c0.464-0.091,0.906-0.351,1.299-0.427c0.183-2.37-0.139-4.095,0.032-5.944c0.111-1.015,0.734-2.131,1.914-2.422
	c1.325-0.244,1.831,0.607,1.782,1.5c-0.066,0.897-0.069,3.865-0.219,5.737c0.47-0.173,0.709-0.478,1.279-0.585
	c0.749-0.098,1.201,0.479,1.177,1.394c-0.047,0.751-0.481,1.288-0.843,1.478c-0.554,0.284-1.188,0.46-1.552,0.594
	c-0.055,0.725-0.222,4.676-0.186,5.765c-0.028,1.131-0.153,4.89-0.196,5.487c-0.074,0.567-0.775,1.361-1.701,1.533
	c-1.139,0.159-1.937-0.09-2.02-0.725c-0.006-0.651,0.131-3.857,0.243-5.23c0.11-1.373,0.231-5,0.295-5.831
	C80.45,110.352,79.919,110.51,79.384,110.604z"/>
<path class="st3" d="M88.827,109.107c-0.64,0.069-0.998-0.493-0.974-0.985c0.08-0.783,0.427-1.636,1.246-1.797
	c0.463-0.081,0.905-0.338,1.298-0.406c0.19-2.452-0.123-4.274,0.055-6.22c0.116-1.068,0.741-2.229,1.92-2.491
	c1.321-0.208,1.822,0.711,1.77,1.651c-0.071,0.941-0.085,4.054-0.241,5.992c0.469-0.165,0.708-0.474,1.277-0.569
	c0.747-0.08,1.196,0.533,1.17,1.477c-0.049,0.774-0.483,1.315-0.845,1.501c-0.552,0.275-1.187,0.441-1.55,0.57
	c-0.057,0.744-0.23,4.773-0.196,5.874c-0.03,1.142-0.153,4.898-0.197,5.489c-0.074,0.561-0.772,1.329-1.696,1.48
	c-1.137,0.131-1.935-0.13-2.017-0.76c-0.008-0.644,0.13-3.839,0.242-5.219c0.111-1.382,0.237-5.081,0.303-5.931
	C89.891,108.877,89.362,109.024,88.827,109.107z"/>
<path class="st3" d="M104.092,116.641c-1.619,1.629-3.95,2.457-5.655,2.677c-1.703,0.175-2.579-0.117-2.552-1.286
	c0.2-2.071,1.733-3.984,3.776-5.84c1.656-1.608,3.498-3.184,3.997-3.636c0.306-0.27,0.613-0.452,0.864-0.523
	c-0.078-1.285-0.42-2.657-1.519-2.582c-0.995,0.155-2.397,1.234-3.034,1.958c-0.099,0.121-0.606,0.801-0.962,0.868
	c-0.603,0.049-1.458-0.444-1.408-1.495c0.061-0.592,0.32-1.012,0.663-1.363c1.129-1.025,4.501-3.126,5.781-3.351
	c1.102-0.125,3.009,0.152,3.898,5.884c0.401,2.313,0.182,5.44,0.127,6.096c-0.062,0.689-0.326,2.53-0.906,3.811
	c-0.209,0.402-1.24,0.666-1.631,0.711c-0.602,0.052-1.665,0.034-1.624-0.963C103.969,117.282,104.029,116.969,104.092,116.641z
	 M100.498,114.374c-0.669,0.904-0.792,1.324-0.844,1.886c-0.03,0.495,0.263,0.713,0.796,0.667c1.596-0.223,2.626-1.549,2.987-1.808
	c0.52-0.321,1.001-0.597,0.932-0.52c0.094-1.095,0.214-2.515,0.236-3.955C103.553,111.437,101.594,112.963,100.498,114.374z"/>
<path class="st3" d="M121.411,112.832c-0.098,1.289,0.107,1.919,1.306,1.881c1.237-0.1,2.344-0.847,2.968-1.189
	c0.578-0.357,1.588-1.708,2.577-1.808c0.987-0.021,1.502,0.507,1.479,1.06c-0.379,2.066-5.421,3.991-8.041,4.243
	c-3.596,0.105-4.099-1.603-3.974-3.415c0.821-6.805,7.147-12.782,8.455-13.06c0.917-0.043,1.51,0.358,1.415,1.806
	c-0.102,1.075-0.403,2.131-1.369,2.442C123.408,105.776,121.679,110.35,121.411,112.832z"/>
<path class="st3" d="M138.53,114.575c-1.608,1.51-3.923,2.14-5.616,2.22c-1.691,0.035-2.562-0.32-2.535-1.485
	c0.198-2.059,1.724-3.893,3.759-5.645c1.648-1.527,3.484-3.018,3.981-3.449c0.305-0.256,0.61-0.421,0.859-0.472
	c-0.072-1.358-0.407-2.854-1.493-2.882c-0.989,0.068-2.385,1.087-3.021,1.799c-0.1,0.12-0.606,0.796-0.959,0.835
	c-0.598-0.003-1.443-0.608-1.388-1.732c0.064-0.631,0.324-1.059,0.666-1.404c1.128-0.997,4.481-2.924,5.754-3.03
	c1.093-0.017,2.974,0.564,3.833,6.638c0.389,2.456,0.165,5.64,0.109,6.303c-0.064,0.697-0.326,2.54-0.903,3.774
	c-0.207,0.386-1.231,0.565-1.619,0.578c-0.597,0.003-1.653-0.099-1.613-1.093C138.408,115.209,138.468,114.9,138.53,114.575z
	 M134.964,111.983c-0.665,0.87-0.788,1.284-0.84,1.849c-0.029,0.497,0.263,0.742,0.79,0.738c1.589-0.097,2.61-1.354,2.968-1.586
	c0.517-0.282,0.997-0.528,0.926-0.452c0.095-1.108,0.218-2.556,0.244-4.049C138.005,109.214,136.055,110.629,134.964,111.983z"/>
<path class="st3" d="M144.781,104.642c-0.631-0.021-0.979-0.702-0.951-1.247c0.087-0.864,0.436-1.775,1.248-1.82
	c0.458-0.012,0.896-0.231,1.283-0.242c0.211-2.737-0.067-4.927,0.139-7.198c0.133-1.25,0.762-2.51,1.926-2.561
	c1.296,0.04,1.777,1.243,1.711,2.328c-0.081,1.085-0.14,4.669-0.311,6.816c0.463-0.107,0.701-0.412,1.265-0.422
	c0.734,0.035,1.17,0.799,1.14,1.833c-0.057,0.847-0.486,1.368-0.847,1.515c-0.548,0.215-1.175,0.299-1.534,0.384
	c-0.062,0.805-0.26,5.106-0.229,6.263c-0.034,1.19-0.162,4.998-0.205,5.58c-0.074,0.551-0.76,1.215-1.676,1.243
	c-1.124-0.02-1.913-0.38-1.995-1.012c-0.008-0.64,0.131-3.851,0.247-5.277c0.115-1.427,0.267-5.395,0.336-6.322
	C145.831,104.55,145.308,104.634,144.781,104.642z"/>
<path class="st3" d="M172.818,109.495c0.207-3.102-0.121-5.584-0.908-5.734c-1.444,0.05-3.926,3.486-4.216,5.791
	c-0.12,1.423-0.203,3.218-0.118,4.171c0.109,0.817,0.308,1.85,0.262,2.529c-0.083,0.71-0.648,1.016-1.317,1.03
	c-1.574-0.083-1.672-0.293-1.883-0.727c-0.26-1.002-0.529-6.477-0.562-8.192c0.064-3.508-0.273-11.39,0.129-16.631
	c0.384-4.058,1.228-5.406,3.05-5.321c1.077,0.123,1.597,1.312,1.504,2.752c-0.131,1.44-0.454,3.381-0.789,7.214
	c-0.208,2.641-0.123,6.03-0.26,8.616c0.569-1.757,3.002-4.662,6.089-4.554c2.114,0.276,3.211,3.624,2.758,9.637
	c-0.112,1.145-0.693,4.241-0.853,5.588c-0.095,0.897-0.604,1.654-2.251,1.586c-1.075-0.15-1.589-0.692-1.548-1.452
	C172.018,114.628,172.542,112.547,172.818,109.495z"/>
<path class="st3" d="M187.98,95.388c1.04-2.069,1.715-4.4,2.557-4.354c1.134,0.24,1.911,1.889,1.882,2.728
	c-0.066,0.5-0.738,2.374-1.605,3.987c-0.798,1.233-2.373,2.413-2.936,2.397c-0.797-0.114-1.478-0.674-1.429-1.644
	C186.574,97.536,187.593,96.102,187.98,95.388z"/>
<path class="st3" d="M190.445,113.018c-0.119,1.798,0.603,2.799,1.083,2.89c0.49,0.034,1.155-0.306,2.141-1.098
	c0.601-0.497,1.429-1.357,2.358-2.033c0.599-0.409,0.925-0.604,1.379-0.561c0.832,0.117,1.135,0.524,1.091,1.213
	c-0.199,1.258-2.5,2.562-3.869,3.334c-0.736,0.421-3.566,2.1-4.444,2.088c-2.28-0.359-3.09-3.251-2.938-5.554
	c0.001-0.012,0.002-0.022,0.003-0.034c-0.184,0.054-0.338,0.071-0.652,0.043c-0.309-0.052-0.582-0.633-0.56-1.036
	c0.098-1.018,0.382-1.214,1.435-1.615c0.023-0.266,0.045-0.52,0.067-0.786c0.474-4.679,2.488-8.262,3.474-8.285
	c3.737,0.59,5.868,3.96,5.84,5.519c-0.093,1.093-0.131,2.143-1.482,2.962c-1.08,0.61-4.266,1.995-4.88,2.39
	C190.477,112.648,190.462,112.825,190.445,113.018z M190.716,109.464c0.663-0.322,2.594-1.087,3.159-1.422
	c0.076-1.275-0.587-2.349-1.729-2.525C191.547,105.553,190.851,108.121,190.716,109.464z"/>
<path class="st3" d="M207.057,119.626c0.048-0.481,0.753-6.67,0.816-8.347c0.045-1.519-0.206-3.345-1.094-3.555
	c-0.948-0.049-3.132,2.084-3.43,4.593c-0.248,3.375,0.523,5.768,0.429,7.346c-0.112,0.687-1.422,0.858-1.912,0.808
	c-0.901-0.132-1.603-0.506-1.795-0.96c-0.238-1.045-0.307-4.345-0.314-5.503c0.046-3.648-0.346-6.012-0.237-7.593
	c0.166-1.278,1.481-1.943,2.006-1.898c1.248,0.198,1.923,0.602,1.954,3.488c1.096-1.794,2.933-3.436,4.712-3.212
	c1.243,0.243,2.336,1.21,2.687,2.897c1.264-1.486,3.609-2.163,5.381-1.867c1.705,0.439,2.412,3.27,2.41,5.325
	c-0.019,1.425-0.097,3.858-0.185,5.356c-0.086,1.495-0.005,3.136-0.074,4.06c-0.099,0.92-0.637,1.666-2.272,1.426
	c-1.622-0.308-1.775-1.081-1.709-1.964c0.172-1.964,0.614-5.652,0.773-7.434c0.13-1.557,0.272-3.734-0.816-4.016
	c-1.113-0.172-1.725,0.276-3.101,1.54c-0.019,0.159-0.092,4.153-0.167,5.542c-0.089,1.493-0.102,3.131-0.175,4.041
	c-0.094,0.907-0.535,1.631-2.138,1.456C207.348,120.918,207.002,120.491,207.057,119.626z"/>
<path class="st3" d="M233.304,123.406c-1.584,1.238-3.856,1.412-5.52,1.101c-1.654-0.357-2.506-0.969-2.474-2.197
	c0.208-2.147,1.7-3.624,3.69-4.843c1.611-1.089,3.399-2.015,3.882-2.287c0.298-0.159,0.594-0.233,0.838-0.221
	c-0.084-1.22-0.438-2.566-1.496-2.853c-0.975-0.18-2.325,0.361-2.939,0.84c-0.119,0.1-0.583,0.565-0.931,0.518
	c-0.584-0.143-1.42-0.893-1.376-1.864c0.056-0.54,0.306-0.846,0.637-1.061c1.087-0.582,4.334-1.328,5.588-1.092
	c1.065,0.261,2.943,0.958,3.846,6.501c0.405,2.265,0.192,5.315,0.137,5.974c-0.064,0.691-0.331,2.563-0.905,3.798
	c-0.209,0.385-1.21,0.342-1.593,0.264c-0.584-0.138-1.617-0.523-1.57-1.591C233.181,124.059,233.241,123.74,233.304,123.406z
	 M229.814,119.92c-0.653,0.719-0.776,1.119-0.827,1.693c-0.03,0.508,0.255,0.837,0.772,0.953c1.565,0.264,2.563-0.814,2.916-0.972
	c0.509-0.171,0.987-0.318,0.909-0.25c0.093-1.102,0.213-2.493,0.23-3.881C232.792,117.909,230.882,118.812,229.814,119.92z"/>
<path class="st3" d="M241.731,102.417c0.783,0.273,1.779,1.012,1.783,1.892c-0.054,0.916-0.384,2.592-0.586,4.842
	c-0.12,1.873,0.353,8.237,0.316,10.258c-0.024,2.677,0.616,6.297,0.566,7.33c-0.118,1.025-0.829,1.326-1.901,1.081
	c-0.995-0.26-2.132-0.803-2.172-1.733c0.011-1.1-0.221-4.377-0.171-7.57c0.027-3.197-0.685-8.909-0.366-13.255
	C239.473,102.533,240.355,102.003,241.731,102.417z"/>
<path class="st3" d="M248.245,104.604c0.78,0.284,1.781,1.01,1.788,1.836c-0.047,0.859-0.37,2.424-0.562,4.571
	c-0.111,1.79,0.373,8.008,0.336,10.021c-0.022,2.664,0.612,6.354,0.56,7.411c-0.12,1.049-0.829,1.349-1.901,1.08
	c-0.992-0.282-2.128-0.858-2.165-1.81c0.011-1.124-0.213-4.463-0.165-7.638c0.025-3.178-0.701-8.765-0.399-12.876
	C245.993,104.62,246.871,104.166,248.245,104.604z"/>
<path class="st3" d="M155.007,112.106c-0.098,1.298,0.107,1.951,1.296,2.006c1.23-0.003,2.329-0.672,2.95-0.967
	c0.575-0.315,1.577-1.601,2.562-1.623c0.979,0.058,1.491,0.633,1.468,1.187c-0.377,2.064-5.384,3.6-7.99,3.649
	c-3.567-0.178-4.07-1.934-3.944-3.76c0.826-6.847,7.111-12.455,8.417-12.613c0.91,0.047,1.496,0.516,1.4,1.981
	c-0.103,1.087-0.401,2.132-1.363,2.363C156.997,105.078,155.277,109.609,155.007,112.106z"/>
<g>
	<g>
		<path class="st4" d="M49.09,123.11c-0.729,0.54-1.413,1-2.009,1.365c0.281-1.514,0.742-2.991,1.299-4.376
			c-0.016,0.092-0.031,0.183-0.041,0.272c-0.008,0.069-0.013,0.137-0.016,0.206C48.289,121.486,48.569,122.383,49.09,123.11z
			 M62.733,113.259c-0.762-0.679-1.757-0.979-2.73-0.823c-0.149,0.024-0.297,0.06-0.44,0.107c-0.534,0.175-1.465,0.619-4.18,1.956
			l-1.111,0.546c-0.767,0.372-1.863,0.889-2.425,1.027c-0.033,0.008-0.067,0.017-0.1,0.027c-0.933,0.266-1.703,0.87-2.277,1.606
			c1.312-2.596,2.756-4.64,3.511-5.634c0.485-0.033,0.865-0.134,1.066-0.191c0.05-0.014,0.1-0.03,0.149-0.046
			c1.664-0.567,2.39-2.181,2.514-3.501c0.003-0.035,0.006-0.07,0.008-0.106c0.017-0.303-0.006-0.585-0.033-0.913
			c-0.015-0.181-0.032-0.385-0.042-0.599c-0.004-0.082-0.014-0.178-0.024-0.259l-0.03-0.223c-0.07-0.533-0.155-1.131-0.373-1.72
			c-0.336-0.968-0.999-1.732-1.88-2.149c-0.929-0.44-2.023-0.461-3.081-0.058c-0.027,0.01-0.053,0.02-0.079,0.031
			c-1.355,0.562-3.071,2.141-3.998,3.342c-3.027,4.054-8.894,13.482-9.628,20.409c-0.005,0.048-0.009,0.097-0.011,0.145
			c-0.191,3.475,1.076,5.3,2.171,6.219c1.04,0.872,2.914,1.763,5.939,1.055c0.045-0.01,0.089-0.022,0.133-0.034
			c2.942-0.839,6.05-2.575,9.282-5.172c0.649,1.329,2.119,2.536,4.462,2.043c0.036-0.007,0.071-0.016,0.107-0.024
			c1.54-0.386,3.221-1.792,3.454-3.732c0.008-0.065,0.014-0.131,0.017-0.196c0.026-0.513-0.035-0.994-0.1-1.504
			c-0.066-0.519-0.134-1.054-0.102-1.582c0.087-1.086,0.305-2.636,0.61-4.313c0.001-0.003,0.15-0.826,0.15-0.826
			c0.163-0.89,0.213-1.158,0.27-1.889c0.003-0.033,0.005-0.066,0.006-0.099C63.985,115.047,63.547,113.983,62.733,113.259z
			 M56.173,104.388c0.017,0.041,0.027,0.083,0.042,0.124c0.006,0.016,0.015,0.03,0.02,0.046
			C56.217,104.5,56.196,104.444,56.173,104.388z"/>
		<path class="st4" d="M74.951,108.832c-1.526-1.365-3.577-2.039-5.358-1.763c-0.36-0.056-1.024-0.16-1.974,0.032
			c-0.04,0.008-0.08,0.017-0.12,0.027c-1.822,0.448-2.513,1.705-2.779,2.203c-2.71,2.951-4.839,7.539-5.194,11.222
			c-0.004,0.041-0.007,0.081-0.009,0.122c-0.159,2.955,0.552,5.154,2.111,6.535c1.482,1.314,3.558,1.747,6.171,1.287
			c0.051-0.009,0.102-0.019,0.153-0.031c4.253-0.987,9.145-5.021,9.838-11.543c0.006-0.056,0.01-0.113,0.013-0.169
			C78,112.493,76.361,110.094,74.951,108.832z"/>
		<path class="st4" d="M85.29,105.9c-0.285-0.251-0.602-0.45-0.938-0.602c0.003-0.221,0.007-0.446,0.01-0.654
			c0.009-0.677,0.019-1.376,0.036-1.652c0.065-1.444-0.459-2.724-1.434-3.564c-0.987-0.851-2.317-1.166-3.744-0.888
			c-0.056,0.011-0.112,0.023-0.168,0.038c-2.186,0.563-3.753,2.483-3.993,4.89c-0.092,1.115-0.044,2.101,0.002,3.056
			c0.017,0.351,0.032,0.695,0.042,1.042c-1.4,0.703-2.318,2.117-2.487,3.925c-0.005,0.054-0.008,0.108-0.01,0.161
			c-0.041,1.11,0.423,2.213,1.242,2.95c0.337,0.304,0.726,0.534,1.143,0.692c-0.033,0.974-0.071,1.957-0.109,2.496
			c-0.099,1.389-0.207,4.629-0.192,5.386c0.002,0.115,0.011,0.23,0.028,0.344c0.135,0.954,0.637,1.8,1.415,2.38
			c0.674,0.503,1.888,1.042,3.841,0.749c0.043-0.006,0.086-0.014,0.13-0.022c2.024-0.399,3.721-2.116,3.948-3.994
			c0.007-0.055,0.012-0.111,0.015-0.167c0.043-0.699,0.128-4.512,0.143-5.514c0.001-0.055,0-0.11-0.002-0.165
			c-0.024-0.564,0.011-2.219,0.052-3.557c0.018-0.009,0.035-0.016,0.053-0.026c1.35-0.724,2.261-2.231,2.345-3.85
			c0.002-0.035,0.003-0.071,0.004-0.107C86.682,107.886,86.195,106.698,85.29,105.9z"/>
		<path class="st4" d="M94.537,104.394c-0.285-0.258-0.601-0.463-0.939-0.62c0.005-0.28,0.01-0.555,0.014-0.814
			c0.012-0.759,0.024-1.475,0.043-1.773c0.068-1.481-0.455-2.794-1.431-3.658c-0.965-0.855-2.266-1.196-3.662-0.962
			c-0.059,0.01-0.119,0.022-0.178,0.035c-2.222,0.519-3.816,2.473-4.062,4.978c-0.094,1.153-0.05,2.186-0.008,3.185
			c0.016,0.376,0.031,0.761,0.04,1.152c-1.407,0.698-2.326,2.122-2.495,3.961c-0.005,0.051-0.008,0.102-0.01,0.153
			c-0.042,1.112,0.415,2.222,1.224,2.969c0.339,0.313,0.732,0.55,1.153,0.715c-0.036,1.023-0.076,2.078-0.116,2.641
			c-0.1,1.412-0.207,4.647-0.191,5.384c0.003,0.111,0.012,0.222,0.027,0.333c0.262,1.873,1.969,3.581,5.188,3.175
			c0.044-0.006,0.088-0.012,0.132-0.02c2.055-0.357,3.778-2.055,4.009-3.951c0.007-0.055,0.011-0.11,0.015-0.166
			c0.043-0.682,0.127-4.502,0.143-5.516c0.001-0.055,0-0.109-0.002-0.164c-0.024-0.574,0.014-2.273,0.057-3.643
			c0.009-0.005,0.018-0.008,0.028-0.013c1.366-0.72,2.286-2.238,2.373-3.885c0.002-0.034,0.003-0.069,0.004-0.103
			C95.917,106.412,95.435,105.206,94.537,104.394z"/>
		<path class="st4" d="M107.228,109.251c-1.196-7.224-4.499-8.374-7.057-8.058c-0.058,0.007-0.116,0.016-0.173,0.027
			c-2.176,0.405-5.981,3.062-7.058,4.059c-0.043,0.04-0.084,0.08-0.123,0.122c-0.835,0.873-1.313,1.903-1.42,3.063
			c-0.005,0.053-0.008,0.106-0.01,0.158c-0.047,1.273,0.418,2.439,1.311,3.284c0.289,0.274,0.619,0.499,0.97,0.68
			c-1.688,1.675-3.589,4.043-3.838,6.939c-0.006,0.069-0.009,0.139-0.01,0.208c-0.017,1.237,0.438,2.338,1.281,3.101
			c1.346,1.218,3.172,1.17,4.429,1.027c0.024-0.003,0.049-0.006,0.074-0.009c0.636-0.089,2.25-0.385,4.015-1.255
			c0.773,0.413,1.712,0.571,2.809,0.465c0.027-0.003,0.053-0.006,0.08-0.009c0.663-0.083,2.897-0.492,3.796-2.265
			c0.023-0.046,0.046-0.093,0.067-0.141c0.846-1.92,1.063-4.398,1.085-4.675C107.501,115.302,107.717,111.907,107.228,109.251z
			 M98.103,116.292c0.001-0.001,0.002-0.002,0.002-0.003c0,0.015,0.001,0.03,0.001,0.044
			C98.105,116.32,98.103,116.306,98.103,116.292z M98.13,116.707c0.003,0.023,0.008,0.046,0.011,0.07h-0.001
			C98.137,116.754,98.133,116.73,98.13,116.707z"/>
		<path class="st4" d="M127.581,111.605c-0.83-0.829-2.008-1.263-3.317-1.221c-0.075,0.002-0.15,0.008-0.225,0.016
			c-1.089,0.121-1.955,0.652-2.638,1.21c0.548-1.208,1.244-2.193,1.8-2.393c1.342-0.448,3-1.66,3.271-4.892
			c0.002-0.028,0.004-0.055,0.006-0.082c0.085-1.54-0.318-2.766-1.199-3.645c-0.571-0.57-1.595-1.229-3.237-1.137
			c-0.156,0.009-0.312,0.03-0.465,0.065c-2.657,0.595-9.53,7.643-10.382,15.372c-0.005,0.048-0.01,0.098-0.012,0.146
			c-0.114,1.945,0.387,3.501,1.49,4.625c1.229,1.253,3.003,1.816,5.42,1.721c0.064-0.003,0.128-0.007,0.192-0.014
			c2.509-0.268,9.624-2.332,10.363-6.607c0.023-0.133,0.036-0.268,0.041-0.402C128.718,113.329,128.326,112.348,127.581,111.605z"/>
		<path class="st4" d="M140.956,107.001c-0.904-5.955-3.171-8.952-6.731-8.86c-0.065,0.002-0.131,0.006-0.195,0.012
			c-2.25,0.212-6.161,2.76-7.263,3.755c-0.047,0.043-0.093,0.087-0.137,0.132c-0.846,0.872-1.33,1.923-1.438,3.126
			c-0.004,0.048-0.007,0.096-0.009,0.144c-0.05,1.279,0.394,2.472,1.251,3.36c0.351,0.363,0.758,0.654,1.194,0.872
			c-1.74,1.615-3.766,3.961-4.025,6.968c-0.006,0.069-0.009,0.139-0.01,0.209c-0.02,1.527,0.639,2.498,1.195,3.043
			c1.264,1.241,3.04,1.333,4.266,1.295c0.025-0.001,0.051-0.002,0.076-0.003c0.637-0.037,2.243-0.203,4.009-0.925
			c0.743,0.473,1.671,0.705,2.768,0.689c0.029-0.001,0.058-0.001,0.087-0.003c0.694-0.031,3.032-0.275,3.998-2.121
			c0.024-0.046,0.047-0.094,0.069-0.141c0.83-1.824,1.059-4.206,1.095-4.666C141.207,113.209,141.426,109.783,140.956,107.001z
			 M134.66,111.082c-0.056,0.004-0.112,0.008-0.168,0.015c0.006-0.005,0.011-0.01,0.017-0.015
			C134.559,111.079,134.61,111.083,134.66,111.082z M131.832,113.784c-0.002,0.019,0.001,0.037,0,0.056
			C131.833,113.822,131.831,113.803,131.832,113.784z M131.85,114.289c-0.001-0.005-0.002-0.01-0.003-0.015
			C131.848,114.279,131.85,114.284,131.85,114.289z"/>
		<path class="st4" d="M148.373,99.401c0.015-0.53,0.028-1.052,0.04-1.534c0.022-0.892,0.042-1.734,0.066-2.105
			c0.077-1.528-0.402-2.94-1.313-3.916c-0.821-0.881-1.956-1.38-3.196-1.405c-0.072-0.002-0.144-0.001-0.216,0.004
			c-2.45,0.134-4.284,2.193-4.565,5.124c-0.104,1.294-0.074,2.497-0.045,3.659c0.011,0.462,0.022,0.934,0.026,1.412
			c-1.205,0.561-2.304,1.811-2.505,4.047c-0.004,0.046-0.007,0.093-0.009,0.14c-0.046,1.115,0.359,2.213,1.112,3.015
			c0.356,0.38,0.775,0.674,1.232,0.875c-0.045,1.234-0.099,2.614-0.146,3.285c-0.105,1.476-0.212,4.693-0.195,5.443
			c0.003,0.11,0.011,0.221,0.027,0.33c0.22,1.576,1.607,3.424,4.791,3.446c0.046,0.001,0.092-0.001,0.137-0.002
			c2.198-0.09,4.115-1.739,4.364-3.753c0.007-0.058,0.012-0.116,0.016-0.173c0.043-0.69,0.132-4.631,0.149-5.597
			c0.001-0.053,0.001-0.105-0.002-0.158c-0.022-0.599,0.024-2.401,0.074-3.868c1.375-0.678,2.3-2.166,2.399-3.886
			c0.002-0.036,0.003-0.073,0.004-0.11C150.654,101.721,149.768,100.134,148.373,99.401z"/>
		<path class="st4" d="M157.372,109.857c-0.078-0.004-0.157-0.004-0.235-0.002c-1.313,0.044-2.34,0.711-3.081,1.318
			c0.555-1.404,1.344-2.552,1.903-2.707c-0.023,0.006-0.046,0.012-0.069,0.018c1.169-0.294,3.175-1.319,3.473-4.876
			c0.002-0.027,0.004-0.054,0.006-0.081c0.083-1.5-0.289-2.716-1.105-3.615c-0.523-0.576-1.475-1.277-3.038-1.341
			c-0.163-0.007-0.328,0.001-0.491,0.022c-3.07,0.402-9.772,7.433-10.603,14.978c-0.005,0.048-0.009,0.097-0.012,0.146
			c-0.042,0.712-0.169,2.879,1.414,4.626c1.155,1.274,2.919,1.967,5.244,2.059c0.066,0.003,0.131,0.003,0.197,0.001
			c2.549-0.074,9.783-1.643,10.541-6.041c0.022-0.132,0.036-0.267,0.041-0.401C161.621,111.741,159.824,109.976,157.372,109.857z"/>
		<path class="st4" d="M169.208,98.895c-0.091-0.011-0.182-0.017-0.273-0.02c-1.08-0.027-2.092,0.183-3.021,0.546
			c0.015-0.487,0.034-0.962,0.064-1.401c0.178-2.298,0.356-3.863,0.498-5.12c0.083-0.727,0.154-1.356,0.2-1.923
			c0.002-0.025,0.004-0.05,0.005-0.075c0.168-3.086-1.508-5.428-4.074-5.695c-0.065-0.007-0.129-0.011-0.194-0.014
			c-5.221-0.188-5.715,5.67-5.901,7.875c-0.242,3.643-0.13,8.337-0.04,12.109c0.043,1.787,0.08,3.331,0.071,4.409
			c0,0.035,0,0.071,0.001,0.107c0.002,0.067,0.288,7.048,0.732,8.687c0.049,0.183,0.117,0.361,0.202,0.531
			c0.987,1.98,2.667,2.213,4.303,2.282c0.07,0.003,0.14,0.003,0.21,0.001c1.383-0.043,2.557-0.665,3.285-1.639
			c0.659,0.76,1.658,1.338,3.049,1.518c0.093,0.012,0.187,0.02,0.281,0.022c2.87,0.088,4.886-1.551,5.138-4.175
			c0.057-0.523,0.211-1.515,0.359-2.473c0.186-1.207,0.363-2.347,0.423-3.035C175.161,101.662,171.984,99.23,169.208,98.895z"/>
		<path class="st4" d="M185.739,89.544c-0.145-0.029-0.293-0.047-0.442-0.054c-2.582-0.112-3.62,2.332-4.453,4.296
			c-0.222,0.522-0.451,1.06-0.694,1.559c-0.06,0.111-0.161,0.282-0.264,0.455c-0.734,1.236-1.353,2.359-1.497,3.586
			c-0.008,0.073-0.014,0.147-0.017,0.221c-0.093,2.329,1.552,4.247,3.91,4.558c0.107,0.014,0.216,0.022,0.324,0.024
			c2.408,0.045,4.715-2.737,5.334-3.715c0.042-0.066,0.081-0.134,0.118-0.204c0.777-1.485,1.701-3.783,1.838-4.908
			c0.011-0.093,0.018-0.186,0.02-0.28C189.962,93.172,188.501,90.099,185.739,89.544z"/>
		<path class="st4" d="M193.953,110.636c0.325-0.867,0.387-1.687,0.43-2.267l0.008-0.113c0.005-0.064,0.007-0.13,0.008-0.193
			c0.021-2.919-3.102-7.454-8.233-8.211c-0.17-0.025-0.342-0.035-0.514-0.029c-3.517,0.117-5.479,5.932-6.005,10.031
			c-0.798,0.633-1.397,1.569-1.53,3.115c-0.004,0.04-0.006,0.079-0.008,0.118c-0.049,1.099,0.419,2.334,1.293,3.141
			c0.424,2.97,2.083,5.766,5.289,6.238c0.135,0.02,0.272,0.03,0.409,0.03c1.194,0.004,2.551-0.57,5.583-2.36l0.21-0.123
			c1.89-1.093,4.765-2.755,5.15-5.368c0.012-0.088,0.022-0.177,0.027-0.265C196.158,112.699,195.344,111.326,193.953,110.636z
			 M181.499,111.39c-0.051,0.012-0.103,0.021-0.153,0.036C181.397,111.41,181.448,111.399,181.499,111.39z"/>
		<path class="st4" d="M215.815,111.796c-0.03-3.19-1.252-7.166-4.6-7.992c-0.081-0.02-0.162-0.036-0.244-0.049
			c-1.589-0.249-3.294,0.006-4.805,0.646c-0.833-0.792-1.865-1.345-3.034-1.561c-0.064-0.012-0.128-0.021-0.193-0.029
			c-1.394-0.161-2.693,0.22-3.838,0.902c-0.628-0.532-1.469-0.925-2.604-1.094c-0.069-0.01-0.139-0.018-0.209-0.023
			c-2.099-0.156-4.689,1.695-5.011,4.406c-0.007,0.057-0.012,0.115-0.015,0.172c-0.054,0.91,0.021,1.917,0.108,3.083
			c0.094,1.271,0.201,2.711,0.196,4.516c0.012,0.8,0.091,4.592,0.442,6.063c0.039,0.163,0.092,0.323,0.159,0.477
			c0.609,1.405,2.074,2.363,4.017,2.627c0.042,0.006,0.084,0.011,0.127,0.015c1.199,0.109,2.502-0.181,3.479-0.873
			c0.625,0.664,1.608,1.215,3.154,1.451c0.049,0.007,0.099,0.014,0.149,0.019c1.497,0.148,2.739-0.173,3.689-0.958
			c0.03-0.025,0.062-0.056,0.093-0.083c0.689,0.893,1.767,1.499,3.189,1.754c0.04,0.007,0.08,0.014,0.12,0.019
			c1.544,0.21,2.838-0.087,3.846-0.884c0.648-0.513,1.454-1.468,1.614-3.105c0.003-0.031,0.005-0.061,0.007-0.092
			c0.035-0.537,0.028-1.16,0.019-1.881c-0.008-0.684-0.017-1.458,0.016-2.148C215.76,115.624,215.811,113.175,215.815,111.796z"/>
		<path class="st4" d="M233.825,115.77c-0.884-5.099-2.794-7.844-6.002-8.595c-0.05-0.011-0.1-0.022-0.151-0.031
			c-2.038-0.363-5.864,0.621-7.35,1.436c-0.07,0.039-0.139,0.08-0.205,0.124c-1.11,0.736-1.762,1.833-1.887,3.176
			c-0.005,0.055-0.009,0.109-0.011,0.165c-0.064,1.817,0.971,3.333,2.27,4.15c-1.459,1.081-3.514,3.072-3.787,6.217
			c-0.006,0.067-0.009,0.134-0.01,0.201c-0.024,1.495,0.56,4.131,4.742,4.988c0.026,0.005,0.052,0.01,0.078,0.015
			c1.369,0.242,2.744,0.211,4.025-0.055c0.65,0.667,1.543,1.161,2.62,1.405c0.03,0.007,0.059,0.013,0.089,0.019
			c1.553,0.3,3.701,0.022,4.641-1.749c0.028-0.053,0.054-0.107,0.079-0.161c0.843-1.864,1.072-4.399,1.095-4.681
			C234.128,121.46,234.306,118.307,233.825,115.77z M227.02,118.837c0.266-0.061,0.537-0.084,0.81-0.068v0.001
			C227.551,118.763,227.277,118.791,227.02,118.837z M224.796,121.565c-0.001,0.023,0,0.045,0,0.068
			C224.796,121.609,224.796,121.587,224.796,121.565z"/>
		<path class="st4" d="M240.37,124.13c-0.172-1.4-0.387-3.141-0.388-4.497c0.008-0.949-0.09-2.623-0.203-4.561
			c-0.115-1.97-0.257-4.414-0.216-5.299c0.091-1.133,0.221-2.131,0.326-2.934c0.098-0.752,0.176-1.346,0.201-1.863
			c0.003-0.06,0.004-0.121,0.003-0.181c-0.033-2.265-1.893-3.901-3.722-4.517c-0.039-0.013-0.077-0.025-0.117-0.036
			c-1.837-0.533-3.122-0.031-3.876,0.485c-1.723,1.177-2.101,3.321-2.237,4.832c-0.002,0.025-0.004,0.05-0.006,0.076
			c-0.179,2.83,0.054,6.068,0.259,8.925c0.116,1.621,0.226,3.153,0.228,4.248c-0.011,2.067,0.095,4.152,0.172,5.675
			c0.039,0.763,0.072,1.421,0.072,1.735c0,0.052,0.002,0.103,0.004,0.155c0.053,0.984,0.579,3.373,4.317,4.309
			c0.029,0.007,0.058,0.014,0.088,0.021c1.794,0.389,2.994-0.125,3.685-0.625c0.925-0.67,1.505-1.722,1.634-2.963
			c0.007-0.063,0.011-0.126,0.014-0.189C240.632,126.299,240.543,125.536,240.37,124.13z"/>
		<path class="st4" d="M246.811,125.65c-0.169-1.407-0.379-3.158-0.382-4.496c0.008-0.965-0.1-2.732-0.215-4.603
			c-0.115-1.874-0.257-4.198-0.221-5.024c0.086-1.068,0.211-2.001,0.312-2.752c0.096-0.717,0.173-1.284,0.195-1.788
			c0.003-0.061,0.004-0.122,0.003-0.184c-0.042-2.179-1.882-3.798-3.686-4.435c-0.037-0.013-0.074-0.025-0.111-0.036
			c-1.874-0.577-3.178-0.086-3.942,0.427c-1.701,1.142-2.069,3.19-2.197,4.631c-0.002,0.024-0.004,0.049-0.006,0.073
			c-0.169,2.661,0.066,5.779,0.273,8.529c0.122,1.628,0.238,3.166,0.241,4.274c-0.01,2.048,0.093,4.155,0.168,5.693
			c0.038,0.782,0.071,1.457,0.071,1.785c0,0.046,0.001,0.093,0.004,0.139c0.048,0.982,0.559,3.375,4.253,4.383
			c0.029,0.008,0.057,0.015,0.086,0.022c1.794,0.431,3.006-0.071,3.708-0.567c0.946-0.669,1.539-1.736,1.672-3.005
			c0.006-0.061,0.011-0.123,0.013-0.185C247.075,127.894,246.98,127.063,246.811,125.65z"/>
	</g>
	<path class="st3" d="M60.683,118.478c-0.291,1.598-0.544,3.308-0.65,4.648c-0.083,1.335,0.232,2.478,0.2,3.118
		c-0.077,0.644-0.811,1.165-1.3,1.288c-0.49,0.103-1.084,0.144-1.355-0.648c-0.134-0.385-0.173-1.2-0.099-2.226
		c0.093-1.194,0.222-2.077,0.343-2.776c-4.631,4.759-9.04,7.747-12.828,8.828c-3.41,0.798-4.764-1.084-4.587-4.32
		c0.599-5.653,5.435-14.121,9.046-18.957c0.818-1.061,2.154-2.165,2.824-2.443c0.498-0.19,1.024-0.155,1.234,0.476
		c0.14,0.347,0.195,0.906,0.263,1.388c0.028,0.571,0.087,1.018,0.076,1.209c-0.03,0.314-0.196,0.919-0.58,1.051
		c-0.172,0.048-0.368,0.103-0.609,0.098c-0.205-0.018-0.464-0.046-0.6-0.012c-0.172,0.051-0.627,0.211-1.206,0.921
		c-2.444,3.167-6.234,9.2-6.853,15.575c-0.124,2.159,0.717,2.736,2.158,2.411c2.204-0.652,7.155-4.169,10.463-8.047
		c0.221-0.222,0.359-0.408,0.551-0.658c-0.455,0.11-0.835,0.436-2.051,1.056c-1.216,0.659-1.736,1.17-2.611,1.387
		c-0.876,0.165-1.339-0.565-1.316-1.157c0.066-0.598,0.642-1.628,1.341-1.826c0.701-0.173,1.641-0.577,3-1.236
		c1.893-0.927,4.395-2.18,4.922-2.352c0.245-0.039,0.633,0.235,0.609,0.782C61.009,116.787,60.979,116.842,60.683,118.478z"/>
	<path class="st3" d="M66.921,111.177c0.431-0.423,0.356-1.037,1.265-1.26c0.875-0.176,1.034,0.146,1.838-0.009
		c1.68-0.267,5.161,1.288,4.908,6.711c-0.573,5.4-4.7,8.368-7.631,9.048c-2.971,0.522-5.159-0.295-4.915-4.839
		C62.684,117.735,64.581,113.674,66.921,111.177z M71.152,118.009c0.168-2.841-0.733-5.357-1.708-5.272
		c-1.003,0.325-2.857,3.775-3.176,7.123c-0.175,2.783,0.565,3.582,1.647,3.418C69.168,122.962,70.87,120.89,71.152,118.009z"/>
	<path class="st3" d="M76.445,112.658c-0.628,0.089-0.985-0.433-0.968-0.901c0.07-0.746,0.399-1.566,1.201-1.748
		c0.454-0.093,0.885-0.354,1.269-0.432c0.155-2.324-0.178-4.012-0.029-5.825c0.099-0.996,0.697-2.095,1.851-2.392
		c1.296-0.253,1.8,0.575,1.762,1.452c-0.055,0.879-0.028,3.788-0.156,5.624c0.459-0.174,0.689-0.476,1.248-0.586
		c0.733-0.104,1.181,0.457,1.168,1.354c-0.039,0.737-0.458,1.268-0.812,1.457c-0.54,0.284-1.16,0.463-1.515,0.598
		c-0.047,0.71-0.17,4.584-0.125,5.651c-0.016,1.108-0.101,4.793-0.137,5.378c-0.067,0.557-0.746,1.342-1.652,1.52
		c-1.115,0.167-1.899-0.069-1.986-0.69c-0.013-0.638,0.09-3.781,0.185-5.127c0.095-1.347,0.177-4.903,0.23-5.717
		C77.487,112.4,76.969,112.561,76.445,112.658z"/>
	<path class="st3" d="M85.685,111.096c-0.627,0.074-0.982-0.473-0.964-0.954c0.07-0.768,0.401-1.608,1.203-1.773
		c0.453-0.084,0.884-0.341,1.267-0.411c0.161-2.405-0.164-4.188-0.009-6.096c0.103-1.049,0.704-2.191,1.856-2.461
		c1.293-0.217,1.792,0.678,1.75,1.6c-0.06,0.923-0.042,3.974-0.175,5.874c0.458-0.167,0.689-0.472,1.246-0.571
		c0.731-0.086,1.178,0.51,1.162,1.435c-0.04,0.76-0.46,1.293-0.813,1.479c-0.538,0.275-1.159,0.444-1.514,0.574
		c-0.048,0.73-0.177,4.68-0.133,5.759c-0.018,1.119-0.101,4.801-0.137,5.381c-0.067,0.55-0.743,1.311-1.647,1.467
		c-1.113,0.14-1.898-0.108-1.984-0.724c-0.015-0.631,0.089-3.763,0.184-5.117c0.095-1.356,0.181-4.981,0.237-5.815
		C86.724,110.859,86.207,111.009,85.685,111.096z"/>
	<path class="st3" d="M100.718,118.325c-1.57,1.613-3.846,2.448-5.514,2.68c-1.667,0.189-2.529-0.089-2.514-1.234
		c0.175-2.032,1.658-3.922,3.641-5.761c1.607-1.593,3.396-3.156,3.88-3.603c0.297-0.268,0.597-0.449,0.841-0.522
		c-0.089-1.258-0.438-2.6-1.515-2.516c-0.973,0.162-2.336,1.233-2.954,1.95c-0.096,0.119-0.586,0.791-0.934,0.861
		c-0.59,0.054-1.433-0.421-1.394-1.452c0.054-0.581,0.304-0.995,0.636-1.342c1.096-1.015,4.379-3.109,5.632-3.342
		c1.078-0.133,2.95,0.119,3.879,5.727c0.417,2.263,0.233,5.33,0.185,5.973c-0.054,0.676-0.294,2.483-0.849,3.744
		c-0.201,0.396-1.208,0.665-1.591,0.713c-0.589,0.057-1.631,0.051-1.601-0.927C100.605,118.954,100.66,118.647,100.718,118.325z
		 M97.174,116.14c-0.646,0.893-0.763,1.305-0.808,1.856c-0.024,0.485,0.266,0.696,0.787,0.646c1.563-0.235,2.559-1.544,2.909-1.801
		c0.507-0.32,0.975-0.595,0.908-0.518c0.081-1.075,0.184-2.466,0.192-3.878C100.139,113.231,98.233,114.747,97.174,116.14z"/>
	<path class="st3" d="M117.652,114.418c-0.084,1.265,0.124,1.88,1.299,1.83c1.211-0.11,2.288-0.853,2.896-1.194
		c0.563-0.356,1.539-1.69,2.508-1.797c0.966-0.031,1.477,0.481,1.46,1.023c-0.35,2.029-5.272,3.965-7.837,4.239
		c-3.522,0.14-4.033-1.529-3.928-3.306c0.736-6.677,6.875-12.597,8.154-12.884c0.899-0.051,1.483,0.335,1.405,1.756
		c-0.089,1.054-0.373,2.093-1.317,2.407C119.539,107.483,117.89,111.983,117.652,114.418z"/>
	<path class="st3" d="M134.445,115.954c-1.561,1.495-3.823,2.136-5.481,2.232c-1.657,0.052-2.514-0.287-2.499-1.43
		c0.174-2.02,1.65-3.833,3.627-5.57c1.6-1.513,3.384-2.992,3.866-3.42c0.296-0.254,0.593-0.418,0.837-0.472
		c-0.084-1.331-0.427-2.793-1.493-2.809c-0.968,0.077-2.326,1.089-2.942,1.794c-0.097,0.118-0.585,0.786-0.931,0.828
		c-0.586,0.003-1.42-0.581-1.377-1.683c0.056-0.619,0.307-1.041,0.639-1.383c1.095-0.988,4.362-2.91,5.608-3.028
		c1.071-0.028,2.92,0.523,3.824,6.467c0.406,2.403,0.218,5.525,0.17,6.176c-0.056,0.684-0.294,2.493-0.847,3.707
		c-0.199,0.381-1.201,0.566-1.581,0.583c-0.586,0.009-1.621-0.08-1.592-1.054C134.332,116.576,134.387,116.272,134.445,115.954z
		 M130.925,113.449c-0.643,0.859-0.76,1.266-0.805,1.82c-0.022,0.487,0.265,0.724,0.782,0.715c1.556-0.111,2.544-1.353,2.893-1.584
		c0.503-0.282,0.971-0.527,0.903-0.452c0.082-1.087,0.188-2.508,0.198-3.97C133.877,110.705,131.981,112.111,130.925,113.449z"/>
	<path class="st3" d="M140.471,106.156c-0.619-0.014-0.967-0.678-0.944-1.213c0.076-0.848,0.41-1.744,1.204-1.796
		c0.449-0.017,0.876-0.236,1.255-0.25c0.18-2.684-0.115-4.827,0.064-7.055c0.118-1.226,0.722-2.467,1.861-2.529
		c1.271,0.026,1.754,1.2,1.7,2.264c-0.069,1.064-0.09,4.577-0.236,6.683c0.453-0.11,0.683-0.411,1.235-0.426
		c0.72,0.027,1.154,0.771,1.136,1.784c-0.047,0.831-0.462,1.346-0.814,1.493c-0.535,0.216-1.148,0.305-1.5,0.391
		c-0.053,0.79-0.203,5.006-0.161,6.14c-0.021,1.166-0.108,4.899-0.144,5.471c-0.067,0.54-0.733,1.199-1.63,1.235
		c-1.102-0.008-1.879-0.353-1.965-0.971c-0.015-0.627,0.09-3.776,0.188-5.174c0.098-1.4,0.207-5.289,0.266-6.199
		C141.499,106.056,140.988,106.144,140.471,106.156z"/>
	<path class="st3" d="M167.994,110.63c0.172-3.042-0.175-5.471-0.948-5.609c-1.415,0.064-3.812,3.456-4.073,5.717
		c-0.103,1.395-0.166,3.156-0.074,4.089c0.115,0.799,0.32,1.81,0.282,2.476c-0.075,0.696-0.625,1.002-1.28,1.022
		c-1.543-0.065-1.642-0.27-1.853-0.694c-0.265-0.979-0.584-6.342-0.633-8.022c0.027-3.438-0.382-11.159-0.042-16.299
		c0.336-3.98,1.149-5.309,2.935-5.245c1.056,0.11,1.579,1.269,1.502,2.681c-0.114,1.413-0.41,3.318-0.7,7.077
		c-0.178,2.59-0.06,5.911-0.169,8.447c0.54-1.728,2.895-4.599,5.921-4.524c2.074,0.25,3.183,3.519,2.8,9.416
		c-0.098,1.124-0.636,4.163-0.78,5.484c-0.084,0.879-0.576,1.627-2.19,1.578c-1.055-0.136-1.564-0.662-1.532-1.407
		C167.262,115.667,167.755,113.623,167.994,110.63z"/>
	<path class="st3" d="M182.71,96.653c0.999-2.037,1.636-4.328,2.462-4.292c1.114,0.224,1.891,1.832,1.871,2.655
		c-0.06,0.491-0.7,2.334-1.532,3.924c-0.77,1.216-2.301,2.389-2.852,2.378c-0.783-0.104-1.455-0.646-1.417-1.596
		C181.354,98.772,182.338,97.356,182.71,96.653z"/>
	<path class="st3" d="M185.304,113.904c-0.098,1.763,0.619,2.737,1.091,2.821c0.481,0.029,1.129-0.312,2.087-1.098
		c0.584-0.493,1.387-1.344,2.29-2.017c0.583-0.407,0.9-0.602,1.345-0.563c0.816,0.106,1.117,0.502,1.081,1.177
		c-0.182,1.235-2.424,2.536-3.757,3.306c-0.717,0.419-3.473,2.094-4.334,2.09c-2.238-0.329-3.06-3.154-2.934-5.413
		c0.001-0.011,0.002-0.022,0.003-0.034c-0.179,0.054-0.331,0.073-0.639,0.048c-0.304-0.048-0.577-0.614-0.559-1.009
		c0.086-0.999,0.362-1.193,1.39-1.597c0.02-0.261,0.038-0.51,0.058-0.771c0.417-4.59,2.354-8.122,3.321-8.154
		c3.668,0.54,5.79,3.821,5.779,5.348c-0.08,1.073-0.107,2.101-1.422,2.918c-1.052,0.609-4.161,1.998-4.758,2.392
		C185.332,113.541,185.318,113.715,185.304,113.904z M185.534,110.419c0.647-0.323,2.531-1.091,3.081-1.426
		c0.061-1.25-0.599-2.296-1.72-2.456C186.308,106.578,185.652,109.101,185.534,110.419z"/>
	<path class="st3" d="M201.649,120.213c0.043-0.471,0.672-6.544,0.716-8.187c0.028-1.489-0.236-3.276-1.109-3.473
		c-0.929-0.039-3.048,2.074-3.315,4.536c-0.209,3.31,0.571,5.647,0.495,7.195c-0.104,0.674-1.385,0.854-1.865,0.811
		c-0.885-0.12-1.576-0.479-1.769-0.923c-0.243-1.022-0.345-4.255-0.363-5.39c0.009-3.575-0.4-5.888-0.309-7.439
		c0.149-1.254,1.432-1.919,1.946-1.881c1.225,0.182,1.89,0.571,1.95,3.398c1.056-1.769,2.84-3.396,4.584-3.195
		c1.22,0.226,2.301,1.162,2.662,2.812c1.224-1.469,3.515-2.157,5.255-1.884c1.675,0.414,2.397,3.18,2.416,5.194
		c-0.004,1.396-0.056,3.782-0.128,5.25c-0.07,1.466,0.027,3.073-0.032,3.98c-0.087,0.902-0.608,1.639-2.212,1.42
		c-1.592-0.286-1.75-1.041-1.694-1.908c0.149-1.927,0.545-5.545,0.683-7.292c0.111-1.527,0.229-3.662-0.84-3.928
		c-1.092-0.157-1.687,0.288-3.023,1.54c-0.017,0.156-0.048,4.071-0.108,5.433c-0.072,1.464-0.068,3.069-0.131,3.962
		c-0.083,0.89-0.508,1.604-2.081,1.448C201.948,121.475,201.604,121.061,201.649,120.213z"/>
	<path class="st3" d="M227.408,123.653c-1.54,1.229-3.764,1.422-5.398,1.134c-1.624-0.333-2.465-0.924-2.446-2.128
		c0.182-2.105,1.629-3.569,3.568-4.783c1.568-1.083,3.311-2.009,3.781-2.28c0.29-0.159,0.579-0.234,0.819-0.225
		c-0.094-1.195-0.455-2.51-1.495-2.781c-0.957-0.166-2.274,0.377-2.871,0.853c-0.116,0.099-0.566,0.56-0.908,0.517
		c-0.573-0.134-1.401-0.862-1.367-1.813c0.049-0.53,0.291-0.833,0.613-1.046c1.06-0.581,4.234-1.345,5.465-1.126
		c1.047,0.245,2.893,0.909,3.834,6.332c0.42,2.215,0.242,5.206,0.194,5.852c-0.056,0.678-0.298,2.515-0.849,3.731
		c-0.201,0.379-1.182,0.348-1.558,0.275c-0.574-0.13-1.589-0.496-1.555-1.543C227.294,124.294,227.35,123.98,227.408,123.653z
		 M223.954,120.271c-0.633,0.711-0.749,1.105-0.793,1.668c-0.024,0.498,0.258,0.817,0.765,0.926
		c1.536,0.243,2.504-0.824,2.848-0.981c0.497-0.173,0.964-0.322,0.888-0.254c0.08-1.081,0.184-2.445,0.186-3.806
		C226.851,118.271,224.989,119.175,223.954,120.271z"/>
	<path class="st3" d="M235.454,102.999c0.771,0.26,1.754,0.973,1.767,1.836c-0.044,0.898-0.35,2.544-0.525,4.751
		c-0.099,1.836,0.428,8.068,0.413,10.049c0.003,2.624,0.667,6.165,0.629,7.178c-0.105,1.006-0.799,1.307-1.853,1.078
		c-0.978-0.245-2.097-0.765-2.146-1.676c0.001-1.078-0.26-4.287-0.244-7.417c-0.006-3.133-0.761-8.723-0.493-12.986
		C233.243,103.135,234.102,102.607,235.454,102.999z"/>
	<path class="st3" d="M241.86,105.076c0.767,0.271,1.755,0.972,1.771,1.781c-0.037,0.842-0.337,2.379-0.505,4.485
		c-0.091,1.755,0.446,7.844,0.431,9.817c0.005,2.611,0.664,6.22,0.623,7.257c-0.107,1.029-0.799,1.33-1.852,1.077
		c-0.976-0.266-2.094-0.82-2.14-1.753c-0.001-1.102-0.254-4.371-0.238-7.484c-0.008-3.115-0.776-8.582-0.521-12.614
		C239.653,105.114,240.509,104.661,241.86,105.076z"/>
	<path class="st3" d="M150.568,113.368c-0.084,1.273,0.124,1.911,1.29,1.953c1.206-0.016,2.275-0.682,2.88-0.978
		c0.561-0.314,1.529-1.584,2.494-1.617c0.96,0.046,1.467,0.606,1.451,1.149c-0.349,2.027-5.24,3.583-7.793,3.657
		c-3.497-0.139-4.008-1.855-3.903-3.645c0.74-6.719,6.843-12.277,8.121-12.445c0.891,0.036,1.471,0.49,1.392,1.926
		c-0.09,1.066-0.372,2.093-1.312,2.329C152.447,106.461,150.807,110.918,150.568,113.368z"/>
	<g>
		<path class="st4" d="M257.891,126.993c-0.25-0.291-0.422-0.593-0.709-0.824c0.481-0.695,0.695-1.352,0.766-2.342
			c0.031-0.423,0.096-1.14,0.171-1.97c0.156-1.709,0.368-4.049,0.503-6.251c0.124-2.065,0.364-3.917,0.508-5.024
			c0.067-0.515,0.107-0.825,0.123-1.052c0.194-2.698-1.709-4.88-4.425-5.074c-1.14-0.082-2.353,0.355-3.328,1.2
			c-0.97,0.84-1.571,1.955-1.651,3.059c-0.036,0.51-0.033,1.591-0.024,3.459c0.009,1.8,0.02,4.04-0.041,4.885
			c-0.076,1.061-0.152,3.054-0.213,4.655c-0.037,0.979-0.072,1.904-0.091,2.17c-0.054,0.749,0.031,1.295,0.471,1.951
			c-1.246,0.689-2.039,1.959-2.178,3.36c-0.118,1.185,0.206,2.261,0.937,3.113c0.946,1.103,2.442,1.694,4.574,1.808
			c2.74,0.147,5.645-1.013,5.893-3.513C259.284,129.512,258.801,128.054,257.891,126.993z"/>
		<path class="st3" d="M254.652,106.895c1.459,0.105,2.252,1.209,2.162,2.461c-0.04,0.556-0.452,3.111-0.632,6.102
			c-0.2,3.269-0.577,6.874-0.672,8.195c-0.067,0.938-0.505,1.72-1.585,1.699c-1.53-0.03-1.994-1.085-1.936-1.884
			c0.055-0.764,0.111-4.531,0.233-6.233c0.12-1.668-0.007-7.336,0.066-8.344C252.354,107.952,253.574,106.817,254.652,106.895z
			 M253.66,127.171c1.665,0.105,3.022,2.185,2.841,3.12c-0.144,0.744-1.539,1.26-2.997,1.182c-1.979-0.106-3.014-0.747-2.888-2.014
			C250.709,128.535,252.5,127.098,253.66,127.171z"/>
	</g>
</g>
</svg>
