<?xml version="1.0" encoding="utf-8"?>
<!-- Generator: Adobe Illustrator 16.0.0, SVG Export Plug-In . SVG Version: 6.00 Build 0)  -->
<!DOCTYPE svg PUBLIC "-//W3C//DTD SVG 1.1//EN" "http://www.w3.org/Graphics/SVG/1.1/DTD/svg11.dtd">
<svg version="1.1" id="Capa_1" xmlns="http://www.w3.org/2000/svg" xmlns:xlink="http://www.w3.org/1999/xlink" x="0px" y="0px"
	 width="548.8px" height="550.508px" viewBox="-580.4 16.748 548.8 550.508" enable-background="new -580.4 16.748 548.8 550.508"
	 xml:space="preserve">
<g opacity="0.6">
	<g transform="translate(0.000000,511.000000) scale(0.100000,-0.100000)">
		<path fill="#FFFFFF" d="M-2072.69,4753.667c-577.637,227.036-1235.054,243.418-1835.337,45.371
			c-236.035-76.958-385.146-145.776-589.39-269.648c-372.256-225.918-715.771-571.182-916.782-921.396l-59.116-104.438
			l650.234-311.635l650.229-311.636l51.729,70.215c346.25,470.703,934.565,659.458,1482.226,476.899
			c351.211-117.031,648.672-399.878,787.104-746.85c102.285-258.735,120.977-537.695,54.175-802.891l-29.121-114.287
			l650.894-316.475c563.144-272.949,651.445-312.226,658.491-297.519c4.697,9.795,31.396,87.539,59.814,171.963
			c293.535,895.83,121.729,1853.144-464.355,2588.105c-141.103,177.729-334.683,365.581-508.408,491.074
			c-110.269,81.533-396.729,255.034-469.653,285.449C-1917.71,4692.983-1994.892,4723.955-2072.69,4753.667z"/>
		<path fill="#FFFFFF" d="M-2753.545,3150.488c-380.503,122.002-818.35-4.546-1082.812-310.815
			c-81.772-95.073-194.653-330.601-217.563-453.945c-53.54-291.167,19.668-594.771,198.677-819.36
			c116.211-144.678,189.594-202.519,367.456-287.764c139.199-65.215,166.719-73.877,281.978-88.379
			c184.146-21.875,308.638-7.637,487.031,56.211c128.867,45.361,175.854,71.094,269.59,143.838
			c159.785,125.566,218.706,204.443,305.415,404.277c94.927,216.982,110.996,348.076,73.213,568.315
			C-2131.85,2725.781-2404.243,3038.901-2753.545,3150.488z M-2773.393,2517.324c120.4-104.463,174.556-284.307,134.604-443.193
			c-44.995-185.098-225.83-323.223-424.16-324.736c-74.199-0.645-101.089,6.221-190.674,49.15
			c-84.058,41.787-111.152,60.791-145.376,105.879c-69.087,91.924-95.806,162.1-100.518,262.422
			c-7.998,187.896,98.682,356.973,267.964,423.691C-3060.522,2657.929-2906.128,2633.735-2773.393,2517.324z"/>
		<path fill="#FFFFFF" d="M-5643.52,3129.511c-177.344-458.14-215.137-1072.129-95.503-1565.459
			c34.033-143.057,136.875-435.215,199.961-568.047C-5081.191,31.377-4091.308-578.867-3018.301-559.072
			c313.838,6.455,563.232,51.436,868.677,159.961c613.96,217.129,1105.6,619.707,1452.055,1188.281l43.833,72.52l-655.142,313.984
			l-653.867,313.379l-58.286-80.664c-239.541-339.268-711.685-559.541-1127.227-526.309
			c-203.501,16.045-286.069,39.043-481.094,132.51c-145.996,69.971-193.945,98.984-268.662,163.477
			c-402.456,343.779-560.371,870.498-414.951,1381.616l13.174,49.512l-651.45,312.222l-651.445,312.217L-5643.52,3129.511z"/>
	</g>
</g>
</svg>
